# xmcd CD database file
#
# Track frame offsets:
#	150
#	19062
#	38530
#	56207
#	75925
#	96315
#	116662
#	139937
#	160825
#	184382
#	204177
#
# Disc length: 2827 seconds
#
# Revision: 8
# Processed by: cddbd v1.5.2PL0 Copyright (c) Steve Scherf et al.
# Submitted via: CDex 1.70beta3
#
DISCID=8c0b090b
DTITLE=久保田利伸 - SHAKE IT PARADISE
DYEAR=1989
DGENRE=JPop
TTITLE0=流星のサドル
TTITLE1=Olympicは火の車
TTITLE2=Shake It Paradise
TTITLE3=Missing
TTITLE4=失意のダウンタウン
TTITLE5=To The Party
TTITLE6=もうひとりの君を残して
TTITLE7=Somebody's Sorrow
TTITLE8=Dedicate (To M.E.)
TTITLE9=Insideカーニバル
TTITLE10=For You〜伝えきれなくて
EXTD=YEAR: 1989
EXTT0=
EXTT1=
EXTT2=
EXTT3=
EXTT4=
EXTT5=
EXTT6=
EXTT7=
EXTT8=
EXTT9=
EXTT10=
PLAYORDER=
